<svg xmlns="http://www.w3.org/2000/svg" version="1.1" xmlns:xlink="http://www.w3.org/1999/xlink" xmlns:svgjs="http://svgjs.com/svgjs" width="1440" height="560" preserveAspectRatio="none" viewBox="0 0 1440 560"><g mask="url(&quot;#SvgjsMask1001&quot;)" fill="none"><path d="M630.14 628.76C747.5 589.34 675.25 262.83 943.95 245.65 1212.66 228.47 1410.82 106.5 1571.58 105.65" stroke="rgba(51,121,194,0.58)" stroke-width="2"></path><path d="M170.28 571.13C358.51 561.97 486.29 242.1 844.85 234.69 1203.41 227.28 1346.6 84.41 1519.42 83.49" stroke="rgba(51,121,194,0.58)" stroke-width="2"></path><path d="M383.73 578.53C542.95 577.85 680.93 453.79 1007.37 449.39 1333.81 444.99 1462.4 196.79 1631.01 191.79" stroke="rgba(51,121,194,0.58)" stroke-width="2"></path><path d="M576.9 640.35C752.65 607.51 831.32 168.1 1110.67 164.35 1390.03 160.6 1506.14 308.65 1644.45 309.95" stroke="rgba(51,121,194,0.58)" stroke-width="2"></path><path d="M343.36 606.7C475.19 579.49 526.18 243.48 736.23 238.52 946.27 233.56 932.66 308.52 1129.09 308.52 1325.53 308.52 1422.2 238.79 1521.96 238.52" stroke="rgba(51,121,194,0.58)" stroke-width="2"></path></g><defs><mask id="SvgjsMask1001"><rect width="1440" height="560" fill="#ffffff"></rect></mask></defs></svg>