<svg xmlns="http://www.w3.org/2000/svg" version="1.1" xmlns:xlink="http://www.w3.org/1999/xlink" xmlns:svgjs="http://svgjs.com/svgjs" width="1440" height="560" preserveAspectRatio="none" viewBox="0 0 1440 560"><g mask="url(&quot;#SvgjsMask1007&quot;)" fill="none"><path d="M1031 188L1030 -104" stroke-width="8" stroke="url(#SvgjsLinearGradient1008)" stroke-linecap="round" class="Down"></path><path d="M831 541L830 726" stroke-width="8" stroke="url(#SvgjsLinearGradient1008)" stroke-linecap="round" class="Down"></path><path d="M137 44L136 344" stroke-width="6" stroke="url(#SvgjsLinearGradient1008)" stroke-linecap="round" class="Down"></path><path d="M681 449L680 214" stroke-width="10" stroke="url(#SvgjsLinearGradient1008)" stroke-linecap="round" class="Down"></path><path d="M301 418L300 642" stroke-width="10" stroke="url(#SvgjsLinearGradient1008)" stroke-linecap="round" class="Down"></path><path d="M712 164L711 8" stroke-width="6" stroke="url(#SvgjsLinearGradient1009)" stroke-linecap="round" class="Up"></path><path d="M686 209L685 503" stroke-width="8" stroke="url(#SvgjsLinearGradient1008)" stroke-linecap="round" class="Down"></path><path d="M360 440L359 796" stroke-width="8" stroke="url(#SvgjsLinearGradient1008)" stroke-linecap="round" class="Down"></path><path d="M361 145L360 -83" stroke-width="8" stroke="url(#SvgjsLinearGradient1008)" stroke-linecap="round" class="Down"></path><path d="M134 94L133 324" stroke-width="8" stroke="url(#SvgjsLinearGradient1008)" stroke-linecap="round" class="Down"></path><path d="M514 306L513 679" stroke-width="6" stroke="url(#SvgjsLinearGradient1009)" stroke-linecap="round" class="Up"></path><path d="M346 209L345 568" stroke-width="6" stroke="url(#SvgjsLinearGradient1009)" stroke-linecap="round" class="Up"></path><path d="M259 335L258 604" stroke-width="6" stroke="url(#SvgjsLinearGradient1009)" stroke-linecap="round" class="Up"></path><path d="M600 134L599 534" stroke-width="10" stroke="url(#SvgjsLinearGradient1009)" stroke-linecap="round" class="Up"></path><path d="M660 99L659 -198" stroke-width="6" stroke="url(#SvgjsLinearGradient1008)" stroke-linecap="round" class="Down"></path><path d="M517 373L516 72" stroke-width="10" stroke="url(#SvgjsLinearGradient1008)" stroke-linecap="round" class="Down"></path><path d="M1202 478L1201 817" stroke-width="6" stroke="url(#SvgjsLinearGradient1009)" stroke-linecap="round" class="Up"></path><path d="M592 166L591 417" stroke-width="6" stroke="url(#SvgjsLinearGradient1008)" stroke-linecap="round" class="Down"></path><path d="M1015 474L1014 83" stroke-width="8" stroke="url(#SvgjsLinearGradient1008)" stroke-linecap="round" class="Down"></path><path d="M1166 70L1165 404" stroke-width="6" stroke="url(#SvgjsLinearGradient1008)" stroke-linecap="round" class="Down"></path><path d="M87 63L86 -191" stroke-width="6" stroke="url(#SvgjsLinearGradient1009)" stroke-linecap="round" class="Up"></path><path d="M336 295L335 147" stroke-width="6" stroke="url(#SvgjsLinearGradient1009)" stroke-linecap="round" class="Up"></path><path d="M139 338L138 736" stroke-width="6" stroke="url(#SvgjsLinearGradient1008)" stroke-linecap="round" class="Down"></path><path d="M1199 557L1198 871" stroke-width="10" stroke="url(#SvgjsLinearGradient1009)" stroke-linecap="round" class="Up"></path><path d="M1253 369L1252 61" stroke-width="8" stroke="url(#SvgjsLinearGradient1008)" stroke-linecap="round" class="Down"></path><path d="M931 184L930 520" stroke-width="10" stroke="url(#SvgjsLinearGradient1009)" stroke-linecap="round" class="Up"></path><path d="M813 414L812 731" stroke-width="8" stroke="url(#SvgjsLinearGradient1008)" stroke-linecap="round" class="Down"></path><path d="M332 306L331 75" stroke-width="8" stroke="url(#SvgjsLinearGradient1008)" stroke-linecap="round" class="Down"></path><path d="M652 19L651 182" stroke-width="10" stroke="url(#SvgjsLinearGradient1009)" stroke-linecap="round" class="Up"></path><path d="M1286 282L1285 685" stroke-width="6" stroke="url(#SvgjsLinearGradient1009)" stroke-linecap="round" class="Up"></path><path d="M1112 154L1111 -250" stroke-width="8" stroke="url(#SvgjsLinearGradient1009)" stroke-linecap="round" class="Up"></path><path d="M751 266L750 472" stroke-width="8" stroke="url(#SvgjsLinearGradient1009)" stroke-linecap="round" class="Up"></path><path d="M1258 417L1257 198" stroke-width="6" stroke="url(#SvgjsLinearGradient1009)" stroke-linecap="round" class="Up"></path><path d="M978 488L977 868" stroke-width="10" stroke="url(#SvgjsLinearGradient1009)" stroke-linecap="round" class="Up"></path><path d="M1133 362L1132 603" stroke-width="6" stroke="url(#SvgjsLinearGradient1008)" stroke-linecap="round" class="Down"></path><path d="M1075 171L1074 -209" stroke-width="10" stroke="url(#SvgjsLinearGradient1008)" stroke-linecap="round" class="Down"></path></g><defs><mask id="SvgjsMask1007"><rect width="1440" height="560" fill="#ffffff"></rect></mask><linearGradient x1="0%" y1="0%" x2="0%" y2="100%" id="SvgjsLinearGradient1008"><stop stop-color="rgba(80, 91, 216, 0)" offset="0"></stop><stop stop-color="rgba(80, 91, 216, 1)" offset="1"></stop></linearGradient><linearGradient x1="0%" y1="100%" x2="0%" y2="0%" id="SvgjsLinearGradient1009"><stop stop-color="rgba(80, 91, 216, 0)" offset="0"></stop><stop stop-color="rgba(80, 91, 216, 1)" offset="1"></stop></linearGradient></defs></svg>